<?xml version="1.0" encoding="UTF-8" standalone="no"?>
<!DOCTYPE svg PUBLIC "-//W3C//DTD SVG 1.1//EN"
 "http://www.w3.org/Graphics/SVG/1.1/DTD/svg11.dtd">
<!-- Generated by graphviz version 2.40.1 (0)
 -->
<!-- Title: G Pages: 1 -->
<svg width="1643pt" height="116pt"
 viewBox="0.00 0.00 1642.80 116.00" xmlns="http://www.w3.org/2000/svg" xmlns:xlink="http://www.w3.org/1999/xlink">
<g id="graph0" class="graph" transform="scale(1 1) rotate(0) translate(4 112)">
<title>G</title>
<polygon fill="#ffffff" stroke="transparent" points="-4,4 -4,-112 1638.7976,-112 1638.7976,4 -4,4"/>
<!-- 0 -->
<g id="node1" class="node">
<title>0</title>
<ellipse fill="none" stroke="#000000" cx="793.5695" cy="-90" rx="175.4615" ry="18"/>
<text text-anchor="middle" x="793.5695" y="-85.8" font-family="Times,serif" font-size="14.00" fill="#000000">DummyConfig@ConfigurationParameters</text>
</g>
<!-- 1 -->
<g id="node2" class="node">
<title>1</title>
<ellipse fill="none" stroke="#000000" cx="198.5695" cy="-18" rx="198.6391" ry="18"/>
<text text-anchor="middle" x="198.5695" y="-13.8" font-family="Times,serif" font-size="14.00" fill="#000000">EndpointController@TimingEndpointController</text>
</g>
<!-- 0&#45;&gt;1 -->
<g id="edge1" class="edge">
<title>0&#45;&gt;1</title>
<path fill="none" stroke="#000000" d="M679.903,-76.2454C579.3406,-64.0765 432.6892,-46.3304 327.7202,-33.6283"/>
<polygon fill="#000000" stroke="#000000" points="328.043,-30.1419 317.6949,-32.4152 327.202,-37.0912 328.043,-30.1419"/>
</g>
<!-- 2 -->
<g id="node3" class="node">
<title>2</title>
<ellipse fill="none" stroke="#000000" cx="596.5695" cy="-18" rx="181.2489" ry="18"/>
<text text-anchor="middle" x="596.5695" y="-13.8" font-family="Times,serif" font-size="14.00" fill="#000000">MasterController@TimingMasterController</text>
</g>
<!-- 0&#45;&gt;2 -->
<g id="edge2" class="edge">
<title>0&#45;&gt;2</title>
<path fill="none" stroke="#000000" d="M746.1324,-72.6626C718.4122,-62.5313 683.2342,-49.6744 653.96,-38.9752"/>
<polygon fill="#000000" stroke="#000000" points="654.8717,-35.582 644.2779,-35.4365 652.4688,-42.1567 654.8717,-35.582"/>
</g>
<!-- 3 -->
<g id="node4" class="node">
<title>3</title>
<ellipse fill="none" stroke="#000000" cx="990.5695" cy="-18" rx="194.0485" ry="18"/>
<text text-anchor="middle" x="990.5695" y="-13.8" font-family="Times,serif" font-size="14.00" fill="#000000">PartitionController@TimingPartitionController</text>
</g>
<!-- 0&#45;&gt;3 -->
<g id="edge3" class="edge">
<title>0&#45;&gt;3</title>
<path fill="none" stroke="#000000" d="M841.0066,-72.6626C868.6246,-62.5687 903.6453,-49.7692 932.8548,-39.0937"/>
<polygon fill="#000000" stroke="#000000" points="934.3278,-42.2819 942.5187,-35.5617 931.9248,-35.7072 934.3278,-42.2819"/>
</g>
<!-- 4 -->
<g id="node5" class="node">
<title>4</title>
<ellipse fill="none" stroke="#000000" cx="1384.5695" cy="-18" rx="181.299" ry="18"/>
<text text-anchor="middle" x="1384.5695" y="-13.8" font-family="Times,serif" font-size="14.00" fill="#000000">FanoutController@TimingFanoutController</text>
</g>
<!-- 0&#45;&gt;4 -->
<g id="edge4" class="edge">
<title>0&#45;&gt;4</title>
<path fill="none" stroke="#000000" d="M906.821,-76.2029C1007.8825,-63.8908 1155.6031,-45.8944 1259.9766,-33.1788"/>
<polygon fill="#000000" stroke="#000000" points="1260.4356,-36.6489 1269.9389,-31.9652 1259.589,-29.7003 1260.4356,-36.6489"/>
</g>
<!-- 5 -->
<g id="node6" class="node">
<title>5</title>
<ellipse fill="none" stroke="#000000" cx="1077.5695" cy="-90" rx="90.9634" ry="18"/>
<text text-anchor="middle" x="1077.5695" y="-85.8" font-family="Times,serif" font-size="14.00" fill="#000000">HSI@HSIController</text>
</g>
<!-- 6 -->
<g id="node7" class="node">
<title>6</title>
<ellipse fill="none" stroke="#000000" cx="1410.5695" cy="-90" rx="224.4563" ry="18"/>
<text text-anchor="middle" x="1410.5695" y="-85.8" font-family="Times,serif" font-size="14.00" fill="#000000">HardwareManagerPDI@TimingHardwareManagerPDI</text>
</g>
</g>
</svg>
